<?xml version="1.0" encoding="utf-8"?>
<!-- Generator: Adobe Illustrator 24.2.3, SVG Export Plug-In . SVG Version: 6.00 Build 0)  -->
<svg version="1.1" id="Layer_1" xmlns="http://www.w3.org/2000/svg" xmlns:xlink="http://www.w3.org/1999/xlink" x="0px" y="0px"
	 viewBox="0 0 180 204.8" style="enable-background:new 0 0 180 204.8;" xml:space="preserve">
<style type="text/css">
	.st0{fill:#BF1E2E;}
	.st1{fill:#FFFFFF;stroke:#BF1E2E;stroke-width:0.6696;stroke-miterlimit:10;stroke-dasharray:4.0179;}
</style>
<g transform="translate(-386 -1900.753)">
	<path class="st0" d="M394.3,1915.1h129.9c4.8,0,8.6,3.9,8.6,8.6v173.5c0,4.8-3.9,8.6-8.6,8.6H394.3c-4.8,0-8.6-3.9-8.6-8.6v-173.5
		C385.7,1918.9,389.5,1915.1,394.3,1915.1z"/>
	<path class="st1" d="M536.9,2091.7H407c-4.8,0-8.6-3.9-8.6-8.6l0,0v-173.5c0-4.8,3.9-8.6,8.6-8.6h129.9c4.8,0,8.6,3.9,8.6,8.6v64.3
		l20.1,22.5l-20.1,22.6v64.2C545.6,2087.8,541.7,2091.7,536.9,2091.7L536.9,2091.7z"/>
</g>
</svg>
